<svg xmlns="http://www.w3.org/2000/svg" viewBox="0 0 64 64" fill="none">
  <defs>
    <linearGradient id="g" x1="0" y1="0" x2="64" y2="64" gradientUnits="userSpaceOnUse">
      <stop stop-color="#4F46E5"/>
      <stop offset="1" stop-color="#06B6D4"/>
    </linearGradient>
    <linearGradient id="g2" x1="10" y1="10" x2="54" y2="54" gradientUnits="userSpaceOnUse">
      <stop stop-color="#ffffff" stop-opacity="0.9"/>
      <stop offset="1" stop-color="#ffffff" stop-opacity="0.6"/>
    </linearGradient>
  </defs>
  <rect x="4" y="4" width="56" height="56" rx="14" fill="url(#g)"/>
  <path d="M20 32c0-7 5.4-12 12-12s12 5 12 12-5.4 12-12 12-12-5-12-12z" fill="url(#g2)"/>
  <path d="M24 32c0-4.4 3.2-8 8-8 4.6 0 8 3.6 8 8 0 4.6-3.4 8-8 8-4.8 0-8-3.6-8-8z" fill="#0F172A" fill-opacity="0.75"/>
  <circle cx="32" cy="32" r="4" fill="#E0F2FE"/>
  <path d="M14 24h8M42 40h8M24 48l4-4M40 16l-4 4" stroke="#E0F2FE" stroke-width="2" stroke-linecap="round"/>
</svg>
